<mxfile host="app.diagrams.net" modified="2021-11-07T02:41:11.979Z" agent="5.0 (Windows NT 10.0; Win64; x64) AppleWebKit/537.36 (KHTML, like Gecko) Chrome/95.0.4638.69 Safari/537.36" etag="cVL2YgfD7OHbbHFUBZUw" version="15.7.0" type="github">
  <diagram id="OSmrZnx7nl2EtLscwigL" name="第 1 页">
    <mxGraphModel dx="1938" dy="1145" grid="1" gridSize="10" guides="1" tooltips="1" connect="1" arrows="1" fold="1" page="1" pageScale="1" pageWidth="827" pageHeight="1169" math="0" shadow="0">
      <root>
        <mxCell id="0" />
        <mxCell id="1" parent="0" />
        <mxCell id="epJrZtuwkzrNh9l0ch0l-7" value="" style="edgeStyle=orthogonalEdgeStyle;rounded=0;orthogonalLoop=1;jettySize=auto;html=1;" edge="1" parent="1" source="epJrZtuwkzrNh9l0ch0l-1" target="epJrZtuwkzrNh9l0ch0l-6">
          <mxGeometry relative="1" as="geometry" />
        </mxCell>
        <mxCell id="epJrZtuwkzrNh9l0ch0l-1" value="Glide.with(this)" style="rounded=1;whiteSpace=wrap;html=1;" vertex="1" parent="1">
          <mxGeometry x="60" y="160" width="120" height="60" as="geometry" />
        </mxCell>
        <mxCell id="epJrZtuwkzrNh9l0ch0l-9" value="" style="edgeStyle=orthogonalEdgeStyle;rounded=0;orthogonalLoop=1;jettySize=auto;html=1;" edge="1" parent="1" source="epJrZtuwkzrNh9l0ch0l-6" target="epJrZtuwkzrNh9l0ch0l-8">
          <mxGeometry relative="1" as="geometry" />
        </mxCell>
        <mxCell id="epJrZtuwkzrNh9l0ch0l-6" value="创建Glide实例" style="rounded=0;whiteSpace=wrap;html=1;" vertex="1" parent="1">
          <mxGeometry x="250" y="160" width="120" height="60" as="geometry" />
        </mxCell>
        <mxCell id="epJrZtuwkzrNh9l0ch0l-8" value="获取到RequestManager" style="whiteSpace=wrap;html=1;rounded=0;" vertex="1" parent="1">
          <mxGeometry x="450" y="160" width="120" height="60" as="geometry" />
        </mxCell>
      </root>
    </mxGraphModel>
  </diagram>
</mxfile>
